<?xml version="1.0" encoding="UTF-8" standalone="no"?>
<!DOCTYPE svg PUBLIC "-//W3C//DTD SVG 1.1//EN" "http://www.w3.org/Graphics/SVG/1.1/DTD/svg11.dtd">
<svg xmlns="http://www.w3.org/2000/svg" version="1.1" viewBox="0.00 0.00 1024.00 1024.00">
<path fill="#ffffff" d="
  M 927.05 512.00
  A 415.05 415.05 0.0 0 1 512.00 927.05
  A 415.05 415.05 0.0 0 1 96.95 512.00
  A 415.05 415.05 0.0 0 1 512.00 96.95
  A 415.05 415.05 0.0 0 1 927.05 512.00
  Z
  M 893.02 512.00
  A 381.02 381.02 0.0 0 0 512.00 130.98
  A 381.02 381.02 0.0 0 0 130.98 512.00
  A 381.02 381.02 0.0 0 0 512.00 893.02
  A 381.02 381.02 0.0 0 0 893.02 512.00
  Z"
/>
<circle fill="#ffffff" cx="512.00" cy="512.00" r="109.02"/>
</svg>
